<svg width="200" height="34" viewBox="0 0 200 34" fill="none" xmlns="http://www.w3.org/2000/svg">
<path d="M185.49 18.0231C185.649 18.1643 185.188 19.5099 185.706 19.4158C186.346 19.2558 186.638 18.8324 187.409 18.663C188.858 18.2113 190.016 19.0206 190.976 20.0651C191.333 20.4697 191.615 21.1943 191.822 21.8718C192.396 23.8291 193.206 26.3792 193.93 28.5906C193.968 28.7129 194.024 28.8164 194.137 28.9764C194.25 29.1364 194.335 29.2022 194.457 29.2681C196.349 30.3973 199.294 32.0535 199.576 32.2887C199.755 32.4581 199.718 32.6087 199.51 32.6087C199.303 32.6087 190.006 32.0347 189.508 32.0158C189.009 31.997 187.437 32.0441 187.795 31.2254C188.153 30.4914 188.501 29.701 188.858 28.967C188.981 28.6941 189.103 28.44 189.216 28.1389C189.348 26.9815 189.15 25.9464 188.934 24.9583C188.708 23.9797 188.237 23.2739 187.324 23.1704C186.44 22.9728 185.781 23.5092 185.461 24.1114C185.132 24.7231 185.104 27.2638 185.01 28.6094C185.602 29.6539 187.324 31.7053 186.788 31.6865C184.116 31.6394 181.509 31.3666 178.874 31.1972C178.517 31.1407 178.902 30.5855 179.1 30.2844C179.298 29.9927 180.267 28.5341 180.86 27.6214C181.057 27.3014 181.575 23.0669 181.763 21.279C181.763 21.1755 181.744 21.0908 181.754 20.9779C181.678 20.9308 181.65 20.8555 181.556 20.8179C179.251 19.6322 176.541 18.1172 175.948 17.722C175.534 17.4397 176.014 17.1856 177.077 17.2797C178.15 17.3738 185.348 17.8725 185.508 18.0137" fill="#00653A"/>
<path d="M72.315 20.4222C71.5245 20.2528 70.6212 20.3563 70.1412 20.9679C69.9436 21.1938 73.0301 22.0783 73.7171 22.2759C74.1029 22.3794 74.0935 21.9936 73.9994 21.7584C73.6606 21.0338 73.0489 20.6198 72.315 20.4128M73.8958 17.1381C74.8745 17.3451 76.1637 18.1073 76.8694 18.9636C78.7702 20.6951 79.2125 23.7815 78.2151 26.1529C77.8951 26.8022 77.3682 26.6987 76.8224 26.5387C74.4228 25.7577 71.9197 24.9578 69.4919 24.205C69.2473 24.1485 68.9462 24.3273 69.012 24.619C70.6023 27.6585 74.2346 27.0939 77.387 27.1692C77.5846 27.188 77.6505 27.3856 77.7069 27.4985C78.1304 28.4019 77.5658 30.1239 77.0482 30.8297C76.8977 31.0367 76.6906 31.0461 76.5871 31.0555C73.6888 31.1496 70.2824 31.1402 67.7229 29.7287C66.6878 29.1076 65.9726 28.3078 65.3233 27.4044C65.0222 26.8304 64.6458 26.0964 64.5234 25.1178C64.3917 24.1485 64.3541 23.4804 64.4199 22.7747C64.4764 22.0595 64.6552 21.1561 65.3609 20.0458C66.349 18.5119 67.7793 17.1192 70.5176 16.8087C71.3269 16.7334 72.7478 16.7899 73.9053 17.1286" fill="#00653A"/>
<path d="M85.4985 22.4832C85.1597 23.3019 85.3291 24.497 85.9125 25.1933C87.0888 26.219 87.9545 26.1814 88.9614 26.012C89.9965 25.7203 91.0692 24.8075 91.3515 23.9794C91.6339 23.1514 91.6244 22.5679 91.3704 21.9939C90.994 21.2505 89.8271 20.4224 88.7073 20.413C87.277 20.413 86.3266 20.9494 85.4891 22.4832M102.305 6.97549C102.55 7.03195 102.418 7.33307 102.418 7.33307C100.715 8.53756 99.1901 9.31859 97.4775 10.4666C97.2705 15.0117 96.9976 26.3978 97.1293 26.5296C97.6469 26.9154 98.315 26.9718 98.9549 27.113C100.686 27.5364 102.295 27.9599 104.187 28.4022C104.639 28.4774 104.413 28.7503 103.735 28.9009C103.462 28.9668 99.9335 29.6537 98.6349 29.8795C96.3953 30.2183 92.2926 31.1123 91.9538 30.9146C91.6244 30.7076 90.9093 29.7854 89.9683 30.2089C87.4087 31.2722 84.247 30.717 82.1673 29.0138C79.8995 26.953 78.7891 23.6689 79.8713 20.6859C80.163 19.9519 80.5394 19.3403 81.0193 18.6439C82.7131 16.3103 85.5832 15.1905 88.5003 15.7457C89.7236 16.028 90.7775 16.442 91.728 17.2513C92.2361 17.6747 92.1044 16.5831 92.2737 15.3787C92.4055 14.4282 92.8195 10.3819 92.8195 10.3819C90.6929 7.84121 88.7261 5.90275 86.6842 3.35262C86.6277 3.16442 86.6371 3.07032 86.8347 3.13619C91.982 4.38773 101.928 6.90021 102.314 6.9849" fill="#00653A"/>
<path d="M161.259 30.2751C161.08 30.2751 161.221 30.6421 161.221 30.8679C161.221 31.0938 161.042 31.4137 160.911 31.5078C160.779 31.6019 160.591 31.5643 160.365 31.649C160.139 31.7431 160.421 31.9219 160.873 31.8748C161.325 31.8183 161.503 31.4043 161.588 31.1785C161.673 30.9432 161.673 30.5386 161.485 30.4068C161.485 30.4068 161.438 30.2751 161.259 30.2751ZM168.222 25.109C167.375 25.5889 166.575 26.5111 166.792 27.0098C167.018 27.5085 167.62 27.4709 168.043 27.4521C169.229 27.3203 169.681 27.0945 170.33 26.3888C170.706 25.8712 171.064 25.4101 170.678 25.0243C169.944 24.4315 168.759 24.8737 168.222 25.1184M117.003 2.56251C117.398 2.76012 117.888 2.76012 118.311 2.84481C123.628 3.71054 128.916 4.57626 134.195 5.44199C134.29 5.71488 133.988 5.93131 133.772 5.95954C131.956 6.77821 130.008 7.81332 128.267 8.58494C128.851 9.71415 129.349 10.7963 129.999 11.9067C131.147 13.9487 132.342 16.4329 133.584 18.5314C134.638 16.8093 139.945 7.28636 140.171 6.84408C140.397 6.41122 140.434 6.27007 140.171 6.10069C139.004 5.15968 136.84 3.53175 136.435 3.2024C136.03 2.87304 136.727 2.68484 137.301 2.81658C140.98 3.70113 153.11 6.15715 154.926 6.59942C156.742 7.04169 158.558 7.66276 159.706 10.1564C159.988 10.7963 160.12 11.455 160.186 12.1796C160.205 13.177 159.763 14.0334 158.887 14.6262C158.069 15.0308 156.921 15.1437 156.13 14.5697C155.057 13.8922 154.465 12.5372 154.719 11.1633C154.813 10.7681 154.982 10.2223 155.49 10.0059C156.064 9.69533 156.921 9.86471 157.316 10.1941C157.749 10.4293 157.975 11.2574 157.89 11.5021C157.777 11.8314 158.097 12.236 158.276 11.7749C158.426 11.0692 158.342 10.354 157.862 9.59182C156.714 8.15208 154.869 7.44633 152.931 7.93565C151.331 8.47202 148.649 9.35656 148.423 9.43185C148.207 9.50713 148.31 9.9494 148.31 9.9494C148.621 10.8528 152.95 23.3681 154.116 26.6899C154.305 27.3486 154.681 28.4778 155.057 28.7789C155.575 29.2024 158.351 30.9526 158.69 30.9056C158.991 30.8397 158.511 30.2563 158.727 29.5693C158.934 29.0706 159.189 28.826 159.556 28.713C160.289 28.4684 160.929 28.9012 161.023 28.6283C160.609 26.7652 161.052 25.2313 162.369 24.3091C164.618 22.8506 166.905 21.7402 169.709 21.3167C170.349 21.2132 169.643 20.037 168.871 19.9146C167.592 19.6888 166.688 20.3004 166.02 21.232C165.747 21.6367 165.776 22.2389 165.324 22.173L160.534 22.2389C159.988 22.2201 160.337 21.4485 160.572 20.6957C161.899 18.042 164.129 15.6989 167.865 15.6048C171.591 15.5107 173.624 16.9411 174.31 17.6092C175.007 18.2773 174.932 18.7666 175.016 19.0583C175.553 21.7308 175.816 24.2715 176.136 27.3674C176.192 27.9602 178.714 29.2024 178.489 29.5599C178.272 29.9269 177.811 29.8893 176.719 30.0869C175.628 30.2845 173.529 30.7832 171.854 30.3786C171.036 30.2939 170.368 29.6352 169.521 30.1057C167.441 30.5856 165.089 31.1691 162.896 30.5574C162.548 30.4068 162.896 31.0655 162.868 31.649C162.83 32.1947 162.548 32.7405 162.143 32.9758C160.609 33.5404 157.542 32.9005 155.076 32.4865C150.795 31.7525 146.363 31.489 142.109 30.6986L141.893 30.4915C142.401 29.974 145.026 28.9577 145.506 28.6848C145.892 28.346 146.626 28.3366 146.711 27.7344C145.779 24.0174 145.083 20.6298 144.029 16.9787C143.747 15.8871 143.53 14.7109 143.182 13.8075C142.081 15.8119 140.98 18.0326 139.851 20.1122C139.296 21.392 138.458 22.5777 138.025 24.008C139.042 24.8361 140.237 25.523 141.027 26.5111C141.065 26.8969 140.575 26.6052 140.397 26.7934C135.823 26.9722 131.128 27.2827 126.432 27.358C126.282 27.2921 126.037 27.2733 126.122 27.0004C126.893 26.0218 128.022 25.1654 128.785 24.3562C128.681 23.7539 128.267 22.7 128.041 22.0413C127.11 19.4818 126.338 17.4774 125.331 14.9273C125.021 14.1745 124.475 12.4337 124.324 12.5654C124.183 12.6124 123.157 16.4894 122.536 18.7102C121.567 22.2483 120.504 25.4477 119.61 28.7507C120.777 29.3906 121.944 30.0116 123.214 30.6703C124.174 31.1879 126.187 32.223 126.47 32.4394C126.752 32.6464 126.667 32.844 126.272 32.7876C125.811 32.7123 122.847 32.1289 120.899 31.7995C117.831 31.2067 112.016 30.1904 111.677 30.1057C111.348 30.021 111.677 29.7105 111.677 29.7105C112.336 29.0612 113.352 27.8661 113.672 27.038C114.698 24.3279 115.498 21.4767 116.072 19.877C117.37 15.4637 119.102 11.1915 120.25 6.73116C118.217 4.34101 114.387 2.87304 111.621 3.79523C110.557 4.3316 110.172 4.84915 110.096 5.7337C110.077 6.15715 110.2 6.6747 110.84 6.96641C111.178 7.17343 111.762 7.25812 112.091 7.04169C112.27 6.82526 111.988 6.72175 111.809 6.68411C111.442 6.59942 111.348 6.2042 111.282 5.93131C111.141 5.27261 111.687 4.52921 112.383 4.35983C113.079 4.19986 113.399 4.30337 113.757 4.64213C114.124 4.97148 114.114 6.63706 113.644 7.34282C112.995 8.1709 111.912 8.84842 110.689 8.47202C109.569 8.15208 108.948 7.22049 108.6 6.16656C108.544 4.55744 109.306 3.38119 110.595 2.58133C112.468 1.64033 114.999 2.31785 117.003 2.57192" fill="#00653A"/>
<path d="M50.3803 29.2309C50.3803 29.4096 50.145 29.6543 49.6557 29.786C49.1758 29.9178 49.6651 30.3318 50.145 30.266C50.6249 30.2001 50.7473 29.899 50.7943 29.2214C50.8414 28.5439 50.5873 28.6851 50.4273 28.7415C50.2485 28.8074 50.3709 29.0521 50.3709 29.2309M55.5276 19.8679C55.2264 19.9055 54.8971 20.0655 54.6995 20.1502C54.0126 20.5548 53.5044 21.1947 53.4856 21.9851C53.4009 22.3897 55.6123 21.8346 56.6944 21.731C57.2214 21.6087 57.5601 21.6652 57.9742 21.4111C58.1718 21.1664 57.6919 20.6301 57.4754 20.4136C56.8356 19.8208 56.3086 19.849 55.5276 19.8584M18.0756 0.821926C17.7651 2.16756 17.2946 3.56025 16.8899 4.90589C16.7488 5.36698 16.6264 5.61164 16.4571 6.22329C16.3724 6.43972 16.4006 6.67497 16.4947 6.82553C18.1885 10.9848 21.5667 19.4256 21.7549 19.8396C21.9431 20.2631 22.0372 20.2254 22.2066 19.9243C22.4418 19.3503 24.9449 10.1755 25.0202 9.82734C25.0955 9.46976 25.1802 9.17805 25.0202 9.00867C24.8508 8.83928 20.7575 5.43285 20.7575 5.43285C20.6633 5.1976 20.7386 5.14114 20.8892 5.04704C26.3282 5.48931 33.3857 6.08214 39.474 6.57146C39.7375 6.63733 39.7375 6.882 39.5399 6.99492L36.8863 9.2251C36.8863 9.2251 36.6887 9.36625 36.6698 9.48858C36.6604 9.56386 36.6887 9.66737 36.7357 9.77088C38.0249 12.7256 39.1541 15.4075 40.575 18.3717C40.7444 18.6351 40.8949 18.6257 41.0737 18.1835C42.3441 14.6171 43.7932 10.7213 45.1106 7.24899C45.3271 6.43031 44.9883 6.14801 44.5931 5.84689C43.6239 5.13173 42.1088 3.83314 41.2431 2.92037C40.6785 2.26166 42.5511 2.78863 43.3698 2.9486C45.7693 3.37205 51.8953 4.61417 52.9586 4.77415C54.9065 5.1976 57.1555 5.17878 57.6072 7.47483C57.8707 8.80164 57.3061 10.0532 56.318 10.7589C55.8381 11.0412 55.2641 10.9848 54.7371 10.7778C54.0031 10.4014 53.7491 9.67678 53.7397 8.91456C53.7397 8.46288 54.0031 8.05825 54.3325 7.81359C54.6901 7.47483 55.4523 7.66303 55.5464 7.94533C55.6405 8.22763 55.6969 8.82046 56.0075 8.5758C56.3651 8.35937 56.525 7.90769 56.2145 7.30545C55.904 6.7032 54.9159 6.59028 54.2572 6.78789C53.5138 7.01374 51.5471 7.5407 50.5497 7.80418C50.2203 7.94533 50.1827 8.17117 50.0509 8.71695C49.9192 9.26274 49.0158 13.1209 48.2818 16.5649C47.3032 20.6112 45.7129 27.4994 45.7694 27.7252C45.8635 27.9511 48.2912 29.372 48.3665 29.2026C48.216 28.6851 48.2442 27.7629 48.63 27.2736C49.2981 26.5396 50.1733 27.1136 49.8815 26.4831C49.7592 26.2855 49.6087 25.9844 49.5051 25.768C49.1005 24.5917 48.9217 23.0202 49.2981 21.7687C49.6275 19.068 51.9518 16.8755 54.4548 16.0286C57.4754 15.1346 60.5243 16.2168 62.2463 18.6163C63.1779 19.8396 63.5543 21.27 63.5449 22.8979C63.4602 23.6507 63.2626 23.9895 62.7827 24.2059C60.2796 24.9963 55.0006 24.9493 54.9441 25.4104C54.7465 25.9091 55.3017 26.3514 55.7534 26.6995C56.7791 27.2924 58.7458 26.3043 59.8562 25.8338C61.0795 25.3069 62.7451 24.2906 63.4414 25.5609C63.7519 26.2855 63.9402 26.8595 63.8931 27.7347C63.7802 28.6757 61.7758 29.0332 60.5055 29.4661C57.7577 30.2001 55.0382 30.9152 52.3187 29.5978C51.9706 30.1813 51.7635 30.9717 51.039 31.2822C49.8815 31.7057 46.7762 31.4328 45.233 31.414C42.2029 31.3575 35.71 31.094 35.71 31.094C34.4679 31.0188 34.976 30.7835 35.2019 30.5953C36.4534 29.4379 37.7238 28.5533 39.0694 27.0854C39.427 26.8031 38.5989 25.768 38.2225 25.0904C36.3217 21.6652 32.1436 13.7231 31.8613 13.2526C31.6261 12.8009 31.2591 12.8009 31.0615 13.2902C30.4122 14.7206 27.2504 21.5993 26.2717 23.773C25.98 24.5352 25.1425 25.9467 25.5378 26.1726C27.8903 27.5653 30.0358 28.7227 32.3318 30.2283C32.4259 30.473 32.153 30.4447 32.1248 30.5953C25.8389 31.3481 19.7318 32.5902 13.38 33.2489C11.9308 33.3619 10.6511 32.7408 9.87003 31.4799C9.50303 30.6988 9.33365 29.5414 9.68182 28.7227C10.03 27.904 10.7546 27.4994 11.4697 27.1512C12.2319 27.076 12.9283 27.1606 13.4553 27.6406C13.9069 28.1487 14.1328 28.9956 13.9916 29.7484C13.8411 30.1436 13.4835 30.6047 13.0694 30.7647C12.6742 30.8023 11.865 31.0846 11.5168 30.5765C11.178 30.2377 11.2063 29.7296 11.0181 29.3438C10.604 30.0778 11.0933 30.7929 11.4697 31.3669C12.2978 32.2044 13.9352 31.9409 14.895 31.5645C16.7394 30.7459 17.7274 28.8545 18.8566 27.3488C19.1672 26.9442 18.5555 25.8056 18.3485 25.3351C16.8523 22.2015 11.5544 10.3261 10.4629 8.60403C10.2464 8.20881 10.2276 8.23704 8.57144 8.05825C5.22146 7.77595 2.10674 7.66303 1.48568 9.93085C1.38217 10.2508 1.35394 10.7025 1.5045 10.9754C1.5986 11.1259 1.83385 11.2012 2.01264 11.1353C2.22907 11.0601 2.0691 10.2414 2.52078 9.75206C3.03833 9.30038 3.61235 9.34743 3.93229 9.44153C4.25223 9.54504 4.5063 9.77088 4.45925 10.1567C4.55335 10.8154 4.13931 11.7376 3.49002 12.1987C2.85954 12.7256 2.28553 12.481 1.58919 12.274C0.619951 11.8505 -0.283413 10.4108 0.0835787 9.01808C0.36588 7.73831 2.02205 6.26093 3.3865 6.2327C4.23341 5.8563 4.74155 5.63987 5.48495 5.35757C6.17188 5.08468 17.1346 1.01954 17.6239 0.821926C18.1132 0.633725 18.0756 0.821926 18.0756 0.821926Z" fill="#00653A"/>
<path d="M197.158 20.0469C195.568 20.0469 194.317 18.7954 194.307 17.2051C194.307 15.6242 195.559 14.3633 197.149 14.3633C198.739 14.3633 200 15.6148 200 17.1957C200 18.786 198.749 20.0375 197.158 20.0375M197.158 14.8338C195.86 14.8338 194.768 15.8689 194.778 17.2145C194.778 18.5508 195.86 19.5953 197.168 19.5953C198.466 19.5953 199.549 18.5508 199.549 17.2145C199.549 15.8689 198.466 14.8338 197.158 14.8338Z" fill="#00653A"/>
<path d="M197.648 17.3552L198.457 18.8326H197.93L197.111 17.3552H196.518V18.8326H196.048V15.6426H197.393C197.967 15.6426 198.494 15.812 198.494 16.4801C198.494 17.1105 198.071 17.3458 197.648 17.3552ZM197.309 16.1037H196.518V16.8941H197.008C197.441 16.8941 198.033 16.96 198.033 16.5271C198.033 16.1225 197.695 16.0943 197.309 16.0943" fill="#00653A"/>
</svg>
